solid shape, STL ascii file, created with Open CASCADE Technology
 facet normal -0.000000e+00 0.000000e+00 -1.000000e+00
   outer loop
     vertex -1.900000e+00 4.975188e+00 2.481201e-02
     vertex -1.090000e+01 -4.924812e+00 2.481201e-02
     vertex -1.090000e+01 4.975188e+00 2.481201e-02
   endloop
 endfacet
 facet normal 0.000000e+00 -0.000000e+00 -1.000000e+00
   outer loop
     vertex -1.900000e+00 4.975188e+00 2.481201e-02
     vertex -1.900000e+00 -4.924812e+00 2.481201e-02
     vertex -1.090000e+01 -4.924812e+00 2.481201e-02
   endloop
 endfacet
 facet normal -1.000000e+00 0.000000e+00 0.000000e+00
   outer loop
     vertex -1.090000e+01 -4.924812e+00 2.481201e-02
     vertex -1.090000e+01 4.975188e+00 4.824812e+00
     vertex -1.090000e+01 4.975188e+00 2.481201e-02
   endloop
 endfacet
 facet normal -1.000000e+00 0.000000e+00 0.000000e+00
   outer loop
     vertex -1.090000e+01 -4.924812e+00 4.824812e+00
     vertex -1.090000e+01 4.975188e+00 4.824812e+00
     vertex -1.090000e+01 -4.924812e+00 2.481201e-02
   endloop
 endfacet
 facet normal 0.000000e+00 1.000000e+00 0.000000e+00
   outer loop
     vertex -1.900000e+00 4.975188e+00 4.824812e+00
     vertex -1.900000e+00 4.975188e+00 2.481201e-02
     vertex -1.090000e+01 4.975188e+00 2.481201e-02
   endloop
 endfacet
 facet normal 0.000000e+00 1.000000e+00 0.000000e+00
   outer loop
     vertex -1.900000e+00 4.975188e+00 4.824812e+00
     vertex -1.090000e+01 4.975188e+00 2.481201e-02
     vertex -1.090000e+01 4.975188e+00 4.824812e+00
   endloop
 endfacet
 facet normal -0.000000e+00 -1.000000e+00 0.000000e+00
   outer loop
     vertex -1.900000e+00 -4.924812e+00 4.824812e+00
     vertex -1.090000e+01 -4.924812e+00 4.824812e+00
     vertex -1.090000e+01 -4.924812e+00 2.481201e-02
   endloop
 endfacet
 facet normal 0.000000e+00 -1.000000e+00 -0.000000e+00
   outer loop
     vertex -1.900000e+00 -4.924812e+00 4.824812e+00
     vertex -1.090000e+01 -4.924812e+00 2.481201e-02
     vertex -1.900000e+00 -4.924812e+00 2.481201e-02
   endloop
 endfacet
 facet normal 1.000000e+00 -0.000000e+00 0.000000e+00
   outer loop
     vertex -1.900000e+00 -4.924812e+00 4.824812e+00
     vertex -1.900000e+00 4.975188e+00 2.481201e-02
     vertex -1.900000e+00 4.975188e+00 4.824812e+00
   endloop
 endfacet
 facet normal 1.000000e+00 0.000000e+00 0.000000e+00
   outer loop
     vertex -1.900000e+00 -4.924812e+00 4.824812e+00
     vertex -1.900000e+00 -4.924812e+00 2.481201e-02
     vertex -1.900000e+00 4.975188e+00 2.481201e-02
   endloop
 endfacet
 facet normal 0.000000e+00 0.000000e+00 1.000000e+00
   outer loop
     vertex -1.900000e+00 4.975188e+00 4.824812e+00
     vertex -1.090000e+01 -4.924812e+00 4.824812e+00
     vertex -1.900000e+00 -4.924812e+00 4.824812e+00
   endloop
 endfacet
 facet normal -0.000000e+00 0.000000e+00 1.000000e+00
   outer loop
     vertex -1.090000e+01 4.975188e+00 4.824812e+00
     vertex -1.090000e+01 -4.924812e+00 4.824812e+00
     vertex -1.900000e+00 4.975188e+00 4.824812e+00
   endloop
 endfacet
 facet normal 0.000000e+00 0.000000e+00 -1.000000e+00
   outer loop
     vertex 0.000000e+00 4.975188e+00 2.481201e-02
     vertex 1.500000e+01 4.975188e+00 2.481201e-02
     vertex 1.500000e+01 -4.924812e+00 2.481201e-02
   endloop
 endfacet
 facet normal 0.000000e+00 0.000000e+00 -1.000000e+00
   outer loop
     vertex 0.000000e+00 4.975188e+00 2.481201e-02
     vertex 1.500000e+01 -4.924812e+00 2.481201e-02
     vertex 0.000000e+00 -4.924812e+00 2.481201e-02
   endloop
 endfacet
 facet normal 1.000000e+00 0.000000e+00 0.000000e+00
   outer loop
     vertex 1.500000e+01 -4.924812e+00 2.481201e-02
     vertex 1.500000e+01 4.975188e+00 2.481201e-02
     vertex 1.500000e+01 4.975188e+00 4.824812e+00
   endloop
 endfacet
 facet normal 1.000000e+00 -0.000000e+00 0.000000e+00
   outer loop
     vertex 1.500000e+01 -4.924812e+00 4.824812e+00
     vertex 1.500000e+01 -4.924812e+00 2.481201e-02
     vertex 1.500000e+01 4.975188e+00 4.824812e+00
   endloop
 endfacet
 facet normal -1.000000e+00 0.000000e+00 0.000000e+00
   outer loop
     vertex 0.000000e+00 -4.924812e+00 2.324812e+00
     vertex 0.000000e+00 4.975188e+00 2.324812e+00
     vertex 0.000000e+00 4.975188e+00 2.481201e-02
   endloop
 endfacet
 facet normal -1.000000e+00 0.000000e+00 0.000000e+00
   outer loop
     vertex 0.000000e+00 -4.924812e+00 2.324812e+00
     vertex 0.000000e+00 4.975188e+00 2.481201e-02
     vertex 0.000000e+00 -4.924812e+00 2.481201e-02
   endloop
 endfacet
 facet normal 0.000000e+00 1.000000e+00 0.000000e+00
   outer loop
     vertex 2.500000e+00 4.975188e+00 4.824812e+00
     vertex 1.500000e+01 4.975188e+00 2.481201e-02
     vertex 0.000000e+00 4.975188e+00 2.481201e-02
   endloop
 endfacet
 facet normal 0.000000e+00 1.000000e+00 0.000000e+00
   outer loop
     vertex 2.500000e+00 4.975188e+00 4.824812e+00
     vertex 0.000000e+00 4.975188e+00 2.481201e-02
     vertex 0.000000e+00 4.975188e+00 2.324812e+00
   endloop
 endfacet
 facet normal -0.000000e+00 1.000000e+00 0.000000e+00
   outer loop
     vertex 2.500000e+00 4.975188e+00 4.824812e+00
     vertex 1.500000e+01 4.975188e+00 4.824812e+00
     vertex 1.500000e+01 4.975188e+00 2.481201e-02
   endloop
 endfacet
 facet normal 5.538172e-15 1.000000e+00 -8.177383e-15
   outer loop
     vertex 7.504411e-01 4.975188e+00 4.074371e+00
     vertex 1.553019e+00 4.975188e+00 4.617921e+00
     vertex 2.500000e+00 4.975188e+00 4.824812e+00
   endloop
 endfacet
 facet normal 8.177383e-15 1.000000e+00 -5.538172e-15
   outer loop
     vertex 7.504411e-01 4.975188e+00 4.074371e+00
     vertex 0.000000e+00 4.975188e+00 2.324812e+00
     vertex 2.068915e-01 4.975188e+00 3.271793e+00
   endloop
 endfacet
 facet normal 3.555851e-15 1.000000e+00 -3.555851e-15
   outer loop
     vertex 7.504411e-01 4.975188e+00 4.074371e+00
     vertex 2.500000e+00 4.975188e+00 4.824812e+00
     vertex 0.000000e+00 4.975188e+00 2.324812e+00
   endloop
 endfacet
 facet normal 0.000000e+00 -1.000000e+00 0.000000e+00
   outer loop
     vertex 2.500000e+00 -4.924812e+00 4.824812e+00
     vertex 1.500000e+01 -4.924812e+00 2.481201e-02
     vertex 1.500000e+01 -4.924812e+00 4.824812e+00
   endloop
 endfacet
 facet normal 0.000000e+00 -1.000000e+00 -0.000000e+00
   outer loop
     vertex 2.500000e+00 -4.924812e+00 4.824812e+00
     vertex 0.000000e+00 -4.924812e+00 2.481201e-02
     vertex 1.500000e+01 -4.924812e+00 2.481201e-02
   endloop
 endfacet
 facet normal 0.000000e+00 -1.000000e+00 0.000000e+00
   outer loop
     vertex 0.000000e+00 -4.924812e+00 2.324812e+00
     vertex 0.000000e+00 -4.924812e+00 2.481201e-02
     vertex 2.500000e+00 -4.924812e+00 4.824812e+00
   endloop
 endfacet
 facet normal -1.384543e-15 -1.000000e+00 2.044346e-15
   outer loop
     vertex 7.504411e-01 -4.924812e+00 4.074371e+00
     vertex 2.500000e+00 -4.924812e+00 4.824812e+00
     vertex 1.553019e+00 -4.924812e+00 4.617921e+00
   endloop
 endfacet
 facet normal -2.044346e-15 -1.000000e+00 1.384543e-15
   outer loop
     vertex 7.504411e-01 -4.924812e+00 4.074371e+00
     vertex 2.068915e-01 -4.924812e+00 3.271793e+00
     vertex 0.000000e+00 -4.924812e+00 2.324812e+00
   endloop
 endfacet
 facet normal -8.889627e-16 -1.000000e+00 8.889627e-16
   outer loop
     vertex 7.504411e-01 -4.924812e+00 4.074371e+00
     vertex 0.000000e+00 -4.924812e+00 2.324812e+00
     vertex 2.500000e+00 -4.924812e+00 4.824812e+00
   endloop
 endfacet
 facet normal -2.134402e-01 0.000000e+00 9.769561e-01
   outer loop
     vertex 1.553019e+00 4.975188e+00 4.617921e+00
     vertex 2.500000e+00 -4.924812e+00 4.824812e+00
     vertex 2.500000e+00 4.975188e+00 4.824812e+00
   endloop
 endfacet
 facet normal -2.134402e-01 8.764761e-17 9.769561e-01
   outer loop
     vertex 1.553019e+00 4.975188e+00 4.617921e+00
     vertex 1.553019e+00 -4.924812e+00 4.617921e+00
     vertex 2.500000e+00 -4.924812e+00 4.824812e+00
   endloop
 endfacet
 facet normal -5.607548e-01 7.428239e-17 8.279819e-01
   outer loop
     vertex 7.504411e-01 4.975188e+00 4.074371e+00
     vertex 7.504411e-01 -4.924812e+00 4.074371e+00
     vertex 1.553019e+00 -4.924812e+00 4.617921e+00
   endloop
 endfacet
 facet normal -5.607548e-01 7.520074e-17 8.279819e-01
   outer loop
     vertex 7.504411e-01 4.975188e+00 4.074371e+00
     vertex 1.553019e+00 -4.924812e+00 4.617921e+00
     vertex 1.553019e+00 4.975188e+00 4.617921e+00
   endloop
 endfacet
 facet normal -8.279819e-01 2.515406e-17 5.607548e-01
   outer loop
     vertex 2.068915e-01 4.975188e+00 3.271793e+00
     vertex 2.068915e-01 -4.924812e+00 3.271793e+00
     vertex 7.504411e-01 -4.924812e+00 4.074371e+00
   endloop
 endfacet
 facet normal -8.279819e-01 5.206205e-17 5.607548e-01
   outer loop
     vertex 2.068915e-01 4.975188e+00 3.271793e+00
     vertex 7.504411e-01 -4.924812e+00 4.074371e+00
     vertex 7.504411e-01 4.975188e+00 4.074371e+00
   endloop
 endfacet
 facet normal -9.769561e-01 0.000000e+00 2.134402e-01
   outer loop
     vertex 0.000000e+00 4.975188e+00 2.324812e+00
     vertex 0.000000e+00 -4.924812e+00 2.324812e+00
     vertex 2.068915e-01 -4.924812e+00 3.271793e+00
   endloop
 endfacet
 facet normal -9.769561e-01 8.677009e-18 2.134402e-01
   outer loop
     vertex 0.000000e+00 4.975188e+00 2.324812e+00
     vertex 2.068915e-01 -4.924812e+00 3.271793e+00
     vertex 2.068915e-01 4.975188e+00 3.271793e+00
   endloop
 endfacet
 facet normal -0.000000e+00 0.000000e+00 1.000000e+00
   outer loop
     vertex 2.500000e+00 4.975188e+00 4.824812e+00
     vertex 1.500000e+01 -4.924812e+00 4.824812e+00
     vertex 1.500000e+01 4.975188e+00 4.824812e+00
   endloop
 endfacet
 facet normal 0.000000e+00 0.000000e+00 1.000000e+00
   outer loop
     vertex 2.500000e+00 4.975188e+00 4.824812e+00
     vertex 2.500000e+00 -4.924812e+00 4.824812e+00
     vertex 1.500000e+01 -4.924812e+00 4.824812e+00
   endloop
 endfacet
endsolid shape
